<?xml version="1.0" encoding="UTF-8" standalone="no"?>
<svg
   width="380"
   height="380"
   viewBox="0 0 380 380"
   version="1.1"
   id="svg4"
   sodipodi:docname="storm_sentry_avatar_editable.svg"
   xmlns:inkscape="http://www.inkscape.org/namespaces/inkscape"
   xmlns:sodipodi="http://sodipodi.sourceforge.net/DTD/sodipodi-0.dtd"
   xmlns="http://www.w3.org/2000/svg"
   xmlns:svg="http://www.w3.org/2000/svg">
  <sodipodi:namedview
     id="namedview4"
     pagecolor="#ffffff"
     bordercolor="#000000"
     borderopacity="0.25"
     inkscape:showpageshadow="2"
     inkscape:pageopacity="0.0"
     inkscape:pagecheckerboard="0"
     inkscape:deskcolor="#d1d1d1" />
  <title
     id="title1">Storm Sentry AI — Logo Mark</title>
  <defs
     id="defs1">
    <clipPath
       id="innerShield">
      <path
         d="M150 42 L250 76 L240 180 C232 235 202 277 150 305 C98 277 68 235 60 180 L50 76 Z"
         id="path1" />
    </clipPath>
  </defs>
  <rect
     width="380"
     height="380"
     rx="44"
     fill="#0B2037"
     id="rect1" />
  <g
     transform="translate(40 10)"
     id="g4">
    <path
       d="M150 15 L280 60 L265 185 C255 255 215 310 150 342 C85 310 45 255 35 185 L20 60 Z"
       fill="#FFFFFF"
       id="path2" />
    <g
       clip-path="url(#innerShield)"
       id="g3">
      <rect
         x="45"
         y="38"
         width="108"
         height="280"
         fill="#1FA6E5"
         id="rect2" />
      <rect
         x="153"
         y="38"
         width="102"
         height="280"
         fill="#F47A20"
         id="rect3" />
    </g>
    <path
       d="M177 56 L122 171 H158 L134 284 L221 144 H181 L205 56 Z"
       fill="#FFFFFF"
       id="path3" />
  </g>
</svg>
